<?xml version="1.0" encoding="UTF-8" standalone="no"?>
<!DOCTYPE svg PUBLIC "-//W3C//DTD SVG 1.1//EN"
 "http://www.w3.org/Graphics/SVG/1.1/DTD/svg11.dtd">
<!-- Generated by graphviz version 2.38.0 (20140413.2041)
 -->
<!-- Title: %3 Pages: 1 -->
<svg width="285pt" height="152pt"
 viewBox="0.00 0.00 285.00 152.00" xmlns="http://www.w3.org/2000/svg" xmlns:xlink="http://www.w3.org/1999/xlink">
<g id="graph0" class="graph" transform="scale(1 1) rotate(0) translate(4 148)">
<title>%3</title>
<!-- secret1 -->
<g id="node1" class="node"><title>secret1</title>
<polygon fill="lightgreen" stroke="black" points="89,-36 0,-36 0,-0 95,-0 95,-30 89,-36"/>
<polyline fill="none" stroke="black" points="89,-36 89,-30 "/>
<polyline fill="none" stroke="black" points="95,-30 89,-30 "/>
<text text-anchor="middle" x="47.5" y="-14.3" font-family="Times,serif" font-size="14.00">per&#45;cap secret</text>
</g>
<!-- mix -->
<g id="node2" class="node"><title>mix</title>
<polygon fill="white" stroke="black" points="185,-117 131,-117 131,-81 185,-81 185,-117"/>
<text text-anchor="middle" x="158" y="-95.3" font-family="Times,serif" font-size="14.00">mix</text>
</g>
<!-- index -->
<g id="node3" class="node"><title>index</title>
<polygon fill="lightblue" stroke="black" points="270,-144 222,-144 222,-108 276,-108 276,-138 270,-144"/>
<polyline fill="none" stroke="black" points="270,-144 270,-138 "/>
<polyline fill="none" stroke="black" points="276,-138 270,-138 "/>
<text text-anchor="middle" x="249" y="-122.3" font-family="Times,serif" font-size="14.00">index</text>
</g>
<!-- mix&#45;&gt;index -->
<g id="edge3" class="edge"><title>mix&#45;&gt;index</title>
<path fill="none" stroke="black" d="M185.222,-106.955C193.732,-109.537 203.321,-112.446 212.396,-115.199"/>
<polygon fill="black" stroke="black" points="211.38,-118.548 221.966,-118.102 213.413,-111.85 211.38,-118.548"/>
</g>
<!-- capkey -->
<g id="node4" class="node"><title>capkey</title>
<polygon fill="lightblue" stroke="black" points="271,-90 221,-90 221,-54 277,-54 277,-84 271,-90"/>
<polyline fill="none" stroke="black" points="271,-90 271,-84 "/>
<polyline fill="none" stroke="black" points="277,-84 271,-84 "/>
<text text-anchor="middle" x="249" y="-68.3" font-family="Times,serif" font-size="14.00">capkey</text>
</g>
<!-- mix&#45;&gt;capkey -->
<g id="edge4" class="edge"><title>mix&#45;&gt;capkey</title>
<path fill="none" stroke="black" d="M185.222,-91.0451C193.343,-88.5813 202.448,-85.8193 211.15,-83.1793"/>
<polygon fill="black" stroke="black" points="212.177,-86.5253 220.73,-80.2729 210.145,-79.8267 212.177,-86.5253"/>
</g>
<!-- secret -->
<g id="node5" class="node"><title>secret</title>
<ellipse fill="none" stroke="black" cx="47.5" cy="-126" rx="31.6951" ry="18"/>
<text text-anchor="middle" x="47.5" y="-122.3" font-family="Times,serif" font-size="14.00">secret</text>
</g>
<!-- secret&#45;&gt;mix -->
<g id="edge1" class="edge"><title>secret&#45;&gt;mix</title>
<path fill="none" stroke="black" d="M77.0071,-118.906C90.4463,-115.562 106.629,-111.535 120.913,-107.98"/>
<polygon fill="black" stroke="black" points="122.053,-111.303 130.912,-105.492 120.363,-104.51 122.053,-111.303"/>
</g>
<!-- contents -->
<g id="node6" class="node"><title>contents</title>
<ellipse fill="none" stroke="black" cx="47.5" cy="-72" rx="40.8928" ry="18"/>
<text text-anchor="middle" x="47.5" y="-68.3" font-family="Times,serif" font-size="14.00">contents</text>
</g>
<!-- contents&#45;&gt;mix -->
<g id="edge2" class="edge"><title>contents&#45;&gt;mix</title>
<path fill="none" stroke="black" d="M83.4273,-80.6916C95.43,-83.6784 108.884,-87.0265 120.973,-90.0347"/>
<polygon fill="black" stroke="black" points="120.195,-93.4477 130.744,-92.4662 121.885,-86.6549 120.195,-93.4477"/>
</g>
</g>
</svg>
