<?xml version="1.0" encoding="UTF-8" standalone="no"?>
<!DOCTYPE svg PUBLIC "-//W3C//DTD SVG 1.1//EN"
 "http://www.w3.org/Graphics/SVG/1.1/DTD/svg11.dtd">
<!-- Generated by graphviz version 2.38.0 (20140413.2041)
 -->
<!-- Title: %3 Pages: 1 -->
<svg width="298pt" height="98pt"
 viewBox="0.00 0.00 298.00 98.00" xmlns="http://www.w3.org/2000/svg" xmlns:xlink="http://www.w3.org/1999/xlink">
<g id="graph0" class="graph" transform="scale(1 1) rotate(0) translate(4 94)">
<title>%3</title>
<!-- secret1 -->
<g id="node1" class="node"><title>secret1</title>
<polygon fill="lightyellow" stroke="black" points="102,-90 0,-90 0,-54 108,-54 108,-84 102,-90"/>
<polyline fill="none" stroke="black" points="102,-90 102,-84 "/>
<polyline fill="none" stroke="black" points="108,-84 102,-84 "/>
<text text-anchor="middle" x="54" y="-68.3" font-family="Times,serif" font-size="14.00">long&#45;term secret</text>
</g>
<!-- mix -->
<g id="node3" class="node"><title>mix</title>
<polygon fill="white" stroke="black" points="198,-63 144,-63 144,-27 198,-27 198,-63"/>
<text text-anchor="middle" x="171" y="-41.3" font-family="Times,serif" font-size="14.00">mix</text>
</g>
<!-- secret1&#45;&gt;mix -->
<g id="edge1" class="edge"><title>secret1&#45;&gt;mix</title>
<path fill="none" stroke="black" d="M108.124,-59.5274C116.814,-57.4872 125.638,-55.4155 133.795,-53.5002"/>
<polygon fill="black" stroke="black" points="134.777,-56.865 143.712,-51.1719 133.177,-50.0503 134.777,-56.865"/>
</g>
<!-- secret2 -->
<g id="node2" class="node"><title>secret2</title>
<polygon fill="lightgreen" stroke="black" points="95.5,-36 6.5,-36 6.5,-0 101.5,-0 101.5,-30 95.5,-36"/>
<polyline fill="none" stroke="black" points="95.5,-36 95.5,-30 "/>
<polyline fill="none" stroke="black" points="101.5,-30 95.5,-30 "/>
<text text-anchor="middle" x="54" y="-14.3" font-family="Times,serif" font-size="14.00">per&#45;cap secret</text>
</g>
<!-- secret2&#45;&gt;mix -->
<g id="edge2" class="edge"><title>secret2&#45;&gt;mix</title>
<path fill="none" stroke="black" d="M101.775,-28.9819C112.502,-31.5004 123.745,-34.1401 133.939,-36.5334"/>
<polygon fill="black" stroke="black" points="133.19,-39.9526 143.725,-38.831 134.79,-33.1379 133.19,-39.9526"/>
</g>
<!-- index -->
<g id="node4" class="node"><title>index</title>
<polygon fill="lightblue" stroke="black" points="283,-90 235,-90 235,-54 289,-54 289,-84 283,-90"/>
<polyline fill="none" stroke="black" points="283,-90 283,-84 "/>
<polyline fill="none" stroke="black" points="289,-84 283,-84 "/>
<text text-anchor="middle" x="262" y="-68.3" font-family="Times,serif" font-size="14.00">index</text>
</g>
<!-- mix&#45;&gt;index -->
<g id="edge3" class="edge"><title>mix&#45;&gt;index</title>
<path fill="none" stroke="black" d="M198.222,-52.9549C206.732,-55.5366 216.321,-58.4457 225.396,-61.1988"/>
<polygon fill="black" stroke="black" points="224.38,-64.5481 234.966,-64.102 226.413,-57.8496 224.38,-64.5481"/>
</g>
<!-- capkey -->
<g id="node5" class="node"><title>capkey</title>
<polygon fill="lightblue" stroke="black" points="284,-36 234,-36 234,-0 290,-0 290,-30 284,-36"/>
<polyline fill="none" stroke="black" points="284,-36 284,-30 "/>
<polyline fill="none" stroke="black" points="290,-30 284,-30 "/>
<text text-anchor="middle" x="262" y="-14.3" font-family="Times,serif" font-size="14.00">capkey</text>
</g>
<!-- mix&#45;&gt;capkey -->
<g id="edge4" class="edge"><title>mix&#45;&gt;capkey</title>
<path fill="none" stroke="black" d="M198.222,-37.0451C206.343,-34.5813 215.448,-31.8193 224.15,-29.1793"/>
<polygon fill="black" stroke="black" points="225.177,-32.5253 233.73,-26.2729 223.145,-25.8267 225.177,-32.5253"/>
</g>
</g>
</svg>
