<?xml version="1.0" encoding="utf-8"?>
<!-- Generator: Adobe Illustrator 15.0.1, SVG Export Plug-In . SVG Version: 6.00 Build 0)  -->
<!DOCTYPE svg PUBLIC "-//W3C//DTD SVG 1.1//EN" "http://www.w3.org/Graphics/SVG/1.1/DTD/svg11.dtd">
<svg version="1.1" id="图层_1" xmlns="http://www.w3.org/2000/svg" xmlns:xlink="http://www.w3.org/1999/xlink" x="0px" y="0px"
	 width="714.75px" height="678.5px" viewBox="21.397 0 714.75 678.5" enable-background="new 21.397 0 714.75 678.5"
	 xml:space="preserve">
<path id="LargeStar" fill="#FCD116" d="M21.397,259l714.75,0.25l-578.5,419.25L379.397,0l220.25,678.5
	C599.647,678.5,599.647,678.5,21.397,259z"/>
<path id="SmallStar" fill="#CE1126" d="M99.557,284.842l557.504,0.195L205.831,612.053l172.965-529.23l171.795,529.23
	C550.591,612.053,550.591,612.053,99.557,284.842z"/>
<path id="one" xlink:href="#symbol1" fill="#FCD116" stroke="#FCD116" d="M319.96,437.438l99.813-0.082l9.625-9.48l15.73,12.625
	l-16.48,14.875H319.96V437.438z"/>
<path id="polyline" fill="#FCD116" stroke="#FCD116" d="M327.793,308.037h78.729l9.25-7.537l15.875,11.875l-11.875,11.875
	c-2,18.625,6.625,38.25,26.25,61.5l-25.25,17.125c-21.625-36.625-21.75-76.838-21.75-76.838h-35.979h-12.75h-22.5"/>
<path id="polyline1" fill="#FCD116" stroke="#FCD116" d="M332.273,337.25c-2,19.625-0.875,33-17.875,62.5l0,0
	c27-13,41-39.75,43.084-62.5H332.273"/>
</svg>
