<?xml version="1.0" encoding="UTF-8" standalone="no"?>
<!DOCTYPE svg PUBLIC "-//W3C//DTD SVG 1.1//EN"
 "http://www.w3.org/Graphics/SVG/1.1/DTD/svg11.dtd">
<!-- Generated by graphviz version 2.38.0 (20140413.2041)
 -->
<!-- Title: %3 Pages: 1 -->
<svg width="470pt" height="179pt"
 viewBox="0.00 0.00 470.00 179.00" xmlns="http://www.w3.org/2000/svg" xmlns:xlink="http://www.w3.org/1999/xlink">
<g id="graph0" class="graph" transform="scale(1 1) rotate(0) translate(4 175)">
<title>%3</title>
<!-- secret -->
<g id="node1" class="node"><title>secret</title>
<polygon fill="lightyellow" stroke="black" points="52.5,-171 4.5,-171 4.5,-135 58.5,-135 58.5,-165 52.5,-171"/>
<polyline fill="none" stroke="black" points="52.5,-171 52.5,-165 "/>
<polyline fill="none" stroke="black" points="58.5,-165 52.5,-165 "/>
<text text-anchor="middle" x="31.5" y="-149.3" font-family="Times,serif" font-size="14.00">secret</text>
</g>
<!-- mix -->
<g id="node3" class="node"><title>mix</title>
<polygon fill="white" stroke="black" points="153,-144 99,-144 99,-108 153,-108 153,-144"/>
<text text-anchor="middle" x="126" y="-122.3" font-family="Times,serif" font-size="14.00">mix</text>
</g>
<!-- secret&#45;&gt;mix -->
<g id="edge1" class="edge"><title>secret&#45;&gt;mix</title>
<path fill="none" stroke="black" d="M58.7594,-145.335C68.2133,-142.576 79.0472,-139.413 89.1771,-136.456"/>
<polygon fill="black" stroke="black" points="90.3764,-139.752 98.9951,-133.591 88.415,-133.033 90.3764,-139.752"/>
</g>
<!-- contents -->
<g id="node2" class="node"><title>contents</title>
<polygon fill="lightgreen" stroke="black" points="57,-117 0,-117 0,-81 63,-81 63,-111 57,-117"/>
<polyline fill="none" stroke="black" points="57,-117 57,-111 "/>
<polyline fill="none" stroke="black" points="63,-111 57,-111 "/>
<text text-anchor="middle" x="31.5" y="-95.3" font-family="Times,serif" font-size="14.00">contents</text>
</g>
<!-- contents&#45;&gt;mix -->
<g id="edge2" class="edge"><title>contents&#45;&gt;mix</title>
<path fill="none" stroke="black" d="M63.0443,-107.916C71.3654,-110.344 80.4561,-112.998 89.0475,-115.506"/>
<polygon fill="black" stroke="black" points="88.2473,-118.918 98.8275,-118.36 90.2088,-112.199 88.2473,-118.918"/>
</g>
<!-- rw -->
<g id="node4" class="node"><title>rw</title>
<polygon fill="lightblue" stroke="black" points="248.5,-144 189.5,-144 189.5,-108 254.5,-108 254.5,-138 248.5,-144"/>
<polyline fill="none" stroke="black" points="248.5,-144 248.5,-138 "/>
<polyline fill="none" stroke="black" points="254.5,-138 248.5,-138 "/>
<text text-anchor="middle" x="222" y="-122.3" font-family="Times,serif" font-size="14.00">writecap</text>
</g>
<!-- mix&#45;&gt;rw -->
<g id="edge3" class="edge"><title>mix&#45;&gt;rw</title>
<path fill="none" stroke="black" d="M153.184,-126C161.228,-126 170.29,-126 179.11,-126"/>
<polygon fill="black" stroke="black" points="179.276,-129.5 189.276,-126 179.276,-122.5 179.276,-129.5"/>
</g>
<!-- diminish1 -->
<g id="node5" class="node"><title>diminish1</title>
<polygon fill="white" stroke="black" points="255,-90 189,-90 189,-54 255,-54 255,-90"/>
<text text-anchor="middle" x="222" y="-68.3" font-family="Times,serif" font-size="14.00">diminish</text>
</g>
<!-- rw&#45;&gt;diminish1 -->
<g id="edge4" class="edge"><title>rw&#45;&gt;diminish1</title>
<path fill="none" stroke="black" d="M222,-107.79C222,-105.308 222,-102.826 222,-100.344"/>
<polygon fill="black" stroke="black" points="225.5,-100.141 222,-90.1406 218.5,-100.141 225.5,-100.141"/>
</g>
<!-- r -->
<g id="node6" class="node"><title>r</title>
<polygon fill="lightblue" stroke="black" points="348,-90 294,-90 294,-54 354,-54 354,-84 348,-90"/>
<polyline fill="none" stroke="black" points="348,-90 348,-84 "/>
<polyline fill="none" stroke="black" points="354,-84 348,-84 "/>
<text text-anchor="middle" x="324" y="-68.3" font-family="Times,serif" font-size="14.00">readcap</text>
</g>
<!-- diminish1&#45;&gt;r -->
<g id="edge5" class="edge"><title>diminish1&#45;&gt;r</title>
<path fill="none" stroke="black" d="M255.191,-72C264.332,-72 274.386,-72 283.889,-72"/>
<polygon fill="black" stroke="black" points="283.914,-75.5001 293.914,-72 283.914,-68.5001 283.914,-75.5001"/>
</g>
<!-- diminish2 -->
<g id="node7" class="node"><title>diminish2</title>
<polygon fill="white" stroke="black" points="357,-36 291,-36 291,-0 357,-0 357,-36"/>
<text text-anchor="middle" x="324" y="-14.3" font-family="Times,serif" font-size="14.00">diminish</text>
</g>
<!-- r&#45;&gt;diminish2 -->
<g id="edge6" class="edge"><title>r&#45;&gt;diminish2</title>
<path fill="none" stroke="black" d="M324,-53.7902C324,-51.3082 324,-48.8262 324,-46.3443"/>
<polygon fill="black" stroke="black" points="327.5,-46.1406 324,-36.1406 320.5,-46.1407 327.5,-46.1406"/>
</g>
<!-- v -->
<g id="node8" class="node"><title>v</title>
<polygon fill="lightblue" stroke="black" points="456,-36 393,-36 393,-0 462,-0 462,-30 456,-36"/>
<polyline fill="none" stroke="black" points="456,-36 456,-30 "/>
<polyline fill="none" stroke="black" points="462,-30 456,-30 "/>
<text text-anchor="middle" x="427.5" y="-14.3" font-family="Times,serif" font-size="14.00">verifycap</text>
</g>
<!-- diminish2&#45;&gt;v -->
<g id="edge7" class="edge"><title>diminish2&#45;&gt;v</title>
<path fill="none" stroke="black" d="M357.115,-18C365.208,-18 374.035,-18 382.597,-18"/>
<polygon fill="black" stroke="black" points="382.843,-21.5001 392.843,-18 382.843,-14.5001 382.843,-21.5001"/>
</g>
</g>
</svg>
