<?xml version="1.0" encoding="UTF-8" standalone="no"?>
<!DOCTYPE svg PUBLIC "-//W3C//DTD SVG 1.1//EN"
 "http://www.w3.org/Graphics/SVG/1.1/DTD/svg11.dtd">
<!-- Generated by graphviz version 2.38.0 (20140413.2041)
 -->
<!-- Title: %3 Pages: 1 -->
<svg width="368pt" height="125pt"
 viewBox="0.00 0.00 368.00 125.00" xmlns="http://www.w3.org/2000/svg" xmlns:xlink="http://www.w3.org/1999/xlink">
<g id="graph0" class="graph" transform="scale(1 1) rotate(0) translate(4 121)">
<title>%3</title>
<!-- secret -->
<g id="node1" class="node"><title>secret</title>
<polygon fill="lightyellow" stroke="black" points="52.5,-117 4.5,-117 4.5,-81 58.5,-81 58.5,-111 52.5,-117"/>
<polyline fill="none" stroke="black" points="52.5,-117 52.5,-111 "/>
<polyline fill="none" stroke="black" points="58.5,-111 52.5,-111 "/>
<text text-anchor="middle" x="31.5" y="-95.3" font-family="Times,serif" font-size="14.00">secret</text>
</g>
<!-- mix -->
<g id="node3" class="node"><title>mix</title>
<polygon fill="white" stroke="black" points="153,-90 99,-90 99,-54 153,-54 153,-90"/>
<text text-anchor="middle" x="126" y="-68.3" font-family="Times,serif" font-size="14.00">mix</text>
</g>
<!-- secret&#45;&gt;mix -->
<g id="edge1" class="edge"><title>secret&#45;&gt;mix</title>
<path fill="none" stroke="black" d="M58.7594,-91.3351C68.2133,-88.5756 79.0472,-85.4132 89.1771,-82.4564"/>
<polygon fill="black" stroke="black" points="90.3764,-85.7525 98.9951,-79.5906 88.415,-79.0329 90.3764,-85.7525"/>
</g>
<!-- contents -->
<g id="node2" class="node"><title>contents</title>
<polygon fill="lightgreen" stroke="black" points="57,-63 0,-63 0,-27 63,-27 63,-57 57,-63"/>
<polyline fill="none" stroke="black" points="57,-63 57,-57 "/>
<polyline fill="none" stroke="black" points="63,-57 57,-57 "/>
<text text-anchor="middle" x="31.5" y="-41.3" font-family="Times,serif" font-size="14.00">contents</text>
</g>
<!-- contents&#45;&gt;mix -->
<g id="edge2" class="edge"><title>contents&#45;&gt;mix</title>
<path fill="none" stroke="black" d="M63.0443,-53.9156C71.3654,-56.3445 80.4561,-58.998 89.0475,-61.5057"/>
<polygon fill="black" stroke="black" points="88.2473,-64.9182 98.8275,-64.3605 90.2088,-58.1986 88.2473,-64.9182"/>
</g>
<!-- r -->
<g id="node4" class="node"><title>r</title>
<polygon fill="lightblue" stroke="black" points="246,-90 192,-90 192,-54 252,-54 252,-84 246,-90"/>
<polyline fill="none" stroke="black" points="246,-90 246,-84 "/>
<polyline fill="none" stroke="black" points="252,-84 246,-84 "/>
<text text-anchor="middle" x="222" y="-68.3" font-family="Times,serif" font-size="14.00">readcap</text>
</g>
<!-- mix&#45;&gt;r -->
<g id="edge3" class="edge"><title>mix&#45;&gt;r</title>
<path fill="none" stroke="black" d="M153.184,-72C162.041,-72 172.133,-72 181.776,-72"/>
<polygon fill="black" stroke="black" points="181.984,-75.5001 191.984,-72 181.984,-68.5001 181.984,-75.5001"/>
</g>
<!-- diminish -->
<g id="node5" class="node"><title>diminish</title>
<polygon fill="white" stroke="black" points="255,-36 189,-36 189,-0 255,-0 255,-36"/>
<text text-anchor="middle" x="222" y="-14.3" font-family="Times,serif" font-size="14.00">diminish</text>
</g>
<!-- r&#45;&gt;diminish -->
<g id="edge4" class="edge"><title>r&#45;&gt;diminish</title>
<path fill="none" stroke="black" d="M222,-53.7902C222,-51.3082 222,-48.8262 222,-46.3443"/>
<polygon fill="black" stroke="black" points="225.5,-46.1406 222,-36.1406 218.5,-46.1407 225.5,-46.1406"/>
</g>
<!-- v -->
<g id="node6" class="node"><title>v</title>
<polygon fill="lightblue" stroke="black" points="354,-36 291,-36 291,-0 360,-0 360,-30 354,-36"/>
<polyline fill="none" stroke="black" points="354,-36 354,-30 "/>
<polyline fill="none" stroke="black" points="360,-30 354,-30 "/>
<text text-anchor="middle" x="325.5" y="-14.3" font-family="Times,serif" font-size="14.00">verifycap</text>
</g>
<!-- diminish&#45;&gt;v -->
<g id="edge5" class="edge"><title>diminish&#45;&gt;v</title>
<path fill="none" stroke="black" d="M255.115,-18C263.208,-18 272.035,-18 280.597,-18"/>
<polygon fill="black" stroke="black" points="280.843,-21.5001 290.843,-18 280.843,-14.5001 280.843,-21.5001"/>
</g>
</g>
</svg>
